<svg width="142" height="85" viewBox="0 0 142 85" fill="none" xmlns="http://www.w3.org/2000/svg">
<path opacity="0.05" d="M140.527 12.501C140.527 6.03545 135.269 0.777588 128.803 0.777588H105.845C102.1 0.777588 98.5741 1.66811 95.4146 3.2052C93.4383 1.68031 90.9741 0.777588 88.2903 0.777588H65.3316C59.7201 0.777588 54.5598 2.74168 50.4731 5.99883C46.3865 2.74168 41.2384 0.777588 35.6147 0.777588H12.6559C6.19041 0.777588 0.932617 6.03545 0.932617 12.501V39.5097C0.932617 40.4246 1.04238 41.3274 1.24977 42.2057C1.04238 43.0841 0.932617 43.999 0.932617 44.9018V71.9105C0.932617 78.376 6.19041 83.6339 12.6559 83.6339H35.6147C41.2262 83.6339 46.3865 81.6698 50.4731 78.4126C54.5598 81.6698 59.7079 83.6339 65.3316 83.6339H88.2903C90.9741 83.6339 93.4383 82.7189 95.4146 81.2062C98.5741 82.7433 102.1 83.6339 105.845 83.6339H123.399C129.865 83.6339 135.123 78.376 135.123 71.9105V60.175C138.465 58.0279 140.527 54.2828 140.527 50.3059V34.1055C140.527 33.1906 140.417 32.2879 140.21 31.4096C140.417 30.5312 140.527 29.6163 140.527 28.7135V12.5131V12.501Z" stroke="url(#paint0_linear_289_1360)" stroke-width="1.21991" stroke-miterlimit="10"/>
<defs>
<linearGradient id="paint0_linear_289_1360" x1="70.7297" y1="0.777588" x2="70.7297" y2="83.6339" gradientUnits="userSpaceOnUse">
<stop stop-color="#FF4F4F"/>
<stop offset="0.86" stop-color="#FF4F4F" stop-opacity="0.2"/>
</linearGradient>
</defs>
</svg>
